<svg xmlns="http://www.w3.org/2000/svg" version="1.1"
    xmlns:xlink="http://www.w3.org/1999/xlink" width="512" height="512" x="0" y="0" viewBox="0 0 480 480" style="enable-background:new 0 0 512 512" xml:space="preserve" class="">
    <g>
        <path d="M408 336V232a7.998 7.998 0 0 0-7.996-8H288a7.998 7.998 0 0 0-8 7.996V336h-32V232a7.998 7.998 0 0 0-7.996-8H128a7.998 7.998 0 0 0-8 7.996V336H72c-39.765 0-72 32.235-72 72 0 39.764 32.235 72 72 72h336c39.765 0 72-32.236 72-72 0-39.765-32.235-72-72-72zm-72-96h16v32h-16v-32zm-40 0h24v40a7.998 7.998 0 0 0 7.996 8H360a7.998 7.998 0 0 0 8-7.996V240h24v96h-96v-96zm-120 0h16v32h-16v-32zm-40 0h24v40a7.998 7.998 0 0 0 7.996 8H200a7.998 7.998 0 0 0 8-7.996V240h24v96h-96v-96zm272 224H72c-30.928 0-56-25.072-56-56s25.072-56 56-56h336c30.928 0 56 25.072 56 56s-25.072 56-56 56z" fill="#000000" opacity="1" data-original="#000000" class=""></path>
        <path d="M88 368c-22.091 0-40 17.909-40 40s17.909 40 40 40 40-17.909 40-40c-.026-22.081-17.919-39.974-40-40zm0 64c-13.255 0-24-10.745-24-24s10.745-24 24-24 24 10.745 24 24c-.014 13.249-10.751 23.986-24 24zM192 368c-22.091 0-40 17.909-40 40s17.909 40 40 40 40-17.909 40-40c-.026-22.081-17.919-39.974-40-40zm0 64c-13.255 0-24-10.745-24-24s10.745-24 24-24 24 10.745 24 24c-.014 13.249-10.751 23.986-24 24zM296 368c-22.091 0-40 17.909-40 40s17.909 40 40 40 40-17.909 40-40c-.026-22.081-17.919-39.974-40-40zm0 64c-13.255 0-24-10.745-24-24s10.745-24 24-24 24 10.745 24 24c-.014 13.249-10.751 23.986-24 24zM400 368c-22.091 0-40 17.909-40 40s17.909 40 40 40 40-17.909 40-40c-.026-22.081-17.919-39.974-40-40zm0 64c-13.255 0-24-10.745-24-24s10.745-24 24-24 24 10.745 24 24c-.014 13.249-10.751 23.986-24 24zM56 240h48v16H56zM40 272h64v16H40zM24 304h80v16H24zM374 168H84c-24.301 0-44-19.699-44-44s19.699-44 44-44h140V64H84c-33.137 0-60 26.863-60 60s26.863 60 60 60h290c40.85.045 73.955 33.15 74 74h16c-.057-49.682-40.318-89.943-90-90zM448 272h16v16h-16zM448 304h16v16h-16z" fill="#000000" opacity="1" data-original="#000000" class=""></path>
        <path d="m478.859 67.883-24-40A7.994 7.994 0 0 0 448 24h-48V8a7.998 7.998 0 0 0-7.996-8H248a7.998 7.998 0 0 0-8 7.996V120a7.998 7.998 0 0 0 7.996 8H272c0 13.255 10.745 24 24 24s24-10.745 24-24h88c0 13.255 10.745 24 24 24s24-10.745 24-24h16a7.998 7.998 0 0 0 8-7.996V72a7.972 7.972 0 0 0-1.141-4.117zM296 136a8 8 0 1 1 8-8 8.008 8.008 0 0 1-8 8zm88-24h-70.242c-8.676-9.807-23.659-10.725-33.467-2.049a23.867 23.867 0 0 0-2.049 2.049H256V16h128v96zm48-72h11.469l9.601 16H432V40zm0 96a8 8 0 1 1 8-8 8.008 8.008 0 0 1-8 8zm32-24h-14.242c-8.676-9.807-23.659-10.725-33.467-2.049a23.867 23.867 0 0 0-2.049 2.049H400V40h16v24a7.998 7.998 0 0 0 7.996 8h38.675L464 74.215V112z" fill="#000000" opacity="1" data-original="#000000" class=""></path>
    </g>
</svg>