<svg xmlns="http://www.w3.org/2000/svg" version="1.1"
    xmlns:xlink="http://www.w3.org/1999/xlink" width="512" height="512" x="0" y="0" viewBox="0 0 511.941 511.941" style="enable-background:new 0 0 512 512" xml:space="preserve" class="hovered-paths">
    <g>
        <path d="M236.97 102.222c-8.34-9.9-20.95-15.66-34.29-15.66l-74.25-.01c-13.34 0-25.95 5.77-34.3 15.67l-77 91.49c-6.24 7.39-9.63 16.6-9.63 26.07v183.25c0 33.13 26.86 60 60 60h157.7l40.11-327.14-28.34-33.67zm-71.35 127.389c-29.11 0-52.71-23.59-52.71-52.7 0-29.11 23.6-52.71 52.71-52.71s52.7 23.6 52.7 52.71c0 3.22-.29 6.37-.84 9.42a52.459 52.459 0 0 1-8.32 20.28c-9.49 13.89-25.45 23-43.54 23z" style="" fill="#ff8a98" data-original="#ff8a98"></path>
        <path d="M323.67 402.972c.03 33.16-26.84 60.06-60 60.06H225.2c-9.27-10.78-16.04-23.75-19.84-38.17-4.44-16.82-1.66-34.73 7.63-49.12.53-.82 1.07-1.61 1.63-2.4a68.64 68.64 0 0 1-3.81-22.62 68.57 68.57 0 0 1 7.52-31.22c-4.9-9.18-7.52-19.35-7.52-29.89 0-4.23.56-8.4 1.63-12.42-5.87-9.1-9.16-19.74-9.16-30.86 0-13.89 1.99-27.21 5.88-39.72a52.459 52.459 0 0 0 8.32-20.28c4.67-9 10.47-17.43 17.36-25.15 8.61-9.64 18.85-18.13 30.47-25.29l48.67 57.82c6.23 7.4 9.63 16.6 9.63 26.08 0 89.589.03 146.639.06 183.18z" style="" fill="#fd5c6f" data-original="#fd5c6f"></path>
        <path d="m212.05 301.992-97.23 97.22c-5.67 5.67-14.87 5.67-20.55 0l-.74-.75c-5.68-5.67-5.68-14.87 0-20.55l112.94-112.94s27.31 2.25 5.58 37.02z" style="" fill="#efedfe" data-original="#efedfe"></path>
        <path d="m241.1 272.941-29.05 29.05c-.82-4.04-1.24-8.18-1.24-12.38 0-4.23.56-8.4 1.63-12.42a57.163 57.163 0 0 1-5.97-12.22l13.33-13.33c5.67-5.68 14.87-5.68 20.55 0l.75.75c5.67 5.67 5.67 14.87 0 20.55z" style="" fill="#dedef9" data-original="#dedef9"></path>
        <circle cx="112.911" cy="274.791" r="30.118" style="" fill="#efedfe" data-original="#efedfe"></circle>
        <path d="M205.36 424.861c-.01 0-.01.01-.02.01-14.03-2.55-24.66-14.84-24.66-29.61 0-16.63 13.48-30.12 30.11-30.12.52 0 1.04.01 1.55.04 0 0 41.66 33.9-6.98 59.68z" style="" fill="#efedfe" data-original="#efedfe"></path>
        <path d="M240.91 395.261c0 16.63-13.48 30.12-30.12 30.12-1.85 0-3.66-.17-5.42-.5-.01-.01-.01-.01-.01-.02-4.44-16.82-1.66-34.73 7.63-49.12.53-.82 1.07-1.61 1.63-2.4a67.08 67.08 0 0 1-2.28-8.16c15.92.811 28.57 13.97 28.57 30.08z" style="" fill="#dedef9" data-original="#dedef9"></path>
        <path d="M496.91 350.722c0 21.14-17.02 38.27-38.03 38.27l-89.97 36.39-21.98-8.89c-73.23-46.54-36.01-104.05-36.01-104.05h147.96c21-.001 38.03 17.129 38.03 38.28z" style="" fill="#eaaa83" data-original="#eaaa83"></path>
        <path d="m346.93 416.492-67.99-27.5c-21 0-38.03-17.13-38.03-38.27 0-21.15 17.03-38.28 38.03-38.28h31.98c5 36.399 15.78 72.869 36.01 104.05z" style="" fill="#df8a57" data-original="#df8a57"></path>
        <path d="M496.91 289.611c0 13.11-8.01 25.35-21.33 32.61-12.93 7.04-29.75 7.04-42.67 0-12.92-7.04-29.74-7.04-42.67 0-12.92 7.04-29.74 7.04-42.66 0-10.69-5.82-24.05-6.83-35.66-3.01-41.32-23.01-4.54-51.95-4.54-51.95h162.25c15.07 0 27.28 10.01 27.28 22.35z" style="" fill="#80e0b7" data-original="#80e0b7"></path>
        <path d="M311.92 319.211c-2.39.77-4.7 1.76-6.9 2.95-12.99 7.02-29.81 7.12-42.78.06-13.32-7.26-21.33-19.5-21.33-32.61 0-12.34 12.22-22.35 27.29-22.35h39.18c.4 16.981 1.78 34.49 4.54 51.95z" style="" fill="#36d49b" data-original="#36d49b"></path>
        <path d="M504.44 246.331c0 15.72-13.81 28.46-30.84 28.46H307.63c-64.25-58.96 11.13-129.23 11.13-129.23 15.51-4.17 32.44-6.3 50.15-6.3 74.85 0 135.53 38.01 135.53 107.07z" style="" fill="#ffd9a0" data-original="#ffd9a0"></path>
        <path d="M307.63 274.791h-43.4c-17.04 0-30.85-12.74-30.85-28.46 0-52.71 35.35-87.34 85.38-100.77-5.48 26.83-13.31 75.86-11.13 129.23z" style="" fill="#fdc072" data-original="#fdc072"></path>
        <path d="M503.36 417.181c-7.18 27.2-29.37 45.85-54.55 45.85h-58.26c-104.71-12.46-62.29-82.83-62.29-82.83H478.9c17.07.001 29.33 18.53 24.46 36.98z" style="" fill="#ffd9a0" data-original="#ffd9a0"></path>
        <path d="M390.55 463.032H289.01c-25.18 0-47.37-18.65-54.55-45.85-4.87-18.45 7.39-36.98 24.47-36.98h69.33c12.79 31.899 32.57 60.939 62.29 82.83z" style="" fill="#fdc072" data-original="#fdc072"></path>
        <path d="M165.617 191.968c-16.634 0-30.118-13.484-30.118-30.118V79.027c0-16.634 13.484-30.118 30.118-30.118 16.633 0 30.118 13.484 30.118 30.118v82.824c0 16.633-13.484 30.117-30.118 30.117z" style="" fill="#77899b" data-original="#77899b"></path>
        <ellipse cx="290.718" cy="228.826" rx="29.355" ry="23.377" style="" fill="#ffa1ac" data-original="#ffa1ac" class="hovered-path"></ellipse>
        <ellipse cx="449.831" cy="228.826" rx="29.355" ry="23.377" style="" fill="#ffa1ac" data-original="#ffa1ac" class="hovered-path"></ellipse>
        <path d="M195.73 86.561h6.95c13.34 0 25.95 5.76 34.29 15.66l47.97 56.99M7.5 364.997v38.034c0 33.13 26.86 60 60 60h196.17c4.54 0 8.97-.51 13.22-1.47M135.5 86.551h-7.07c-13.34 0-25.95 5.77-34.3 15.67l-77 91.49c-6.24 7.39-9.63 16.6-9.63 26.07v115.475" style="stroke-width:15;stroke-linecap:round;stroke-linejoin:round;stroke-miterlimit:10;" fill="none" stroke="#000000" stroke-width="15" stroke-linecap="round" stroke-linejoin="round" stroke-miterlimit="10" data-original="#000000"></path>
        <path d="M244.32 268.061a14.6 14.6 0 0 1-3.22 4.88l-126.28 126.27c-5.67 5.67-14.87 5.67-20.55 0l-.74-.75c-5.68-5.67-5.68-14.87 0-20.55l126.27-126.27c3.69-3.7 8.88-4.99 13.62-3.86" style="stroke-width:15;stroke-linecap:round;stroke-linejoin:round;stroke-miterlimit:10;" fill="none" stroke="#000000" stroke-width="15" stroke-linecap="round" stroke-linejoin="round" stroke-miterlimit="10" data-original="#000000"></path>
        <circle cx="112.911" cy="274.791" r="30.118" style="stroke-width:15;stroke-linecap:round;stroke-linejoin:round;stroke-miterlimit:10;" fill="none" stroke="#000000" stroke-width="15" stroke-linecap="round" stroke-linejoin="round" stroke-miterlimit="10" data-original="#000000"></circle>
        <path d="M240.32 389.291c-2.77-13.77-14.94-24.15-29.53-24.15-16.63 0-30.11 13.49-30.11 30.12s13.48 30.12 30.11 30.12c9.28 0 17.58-4.2 23.1-10.8M480.44 319.181c21.024 14.6 22.057 45.31 2.3 61.34M255.08 380.521c-19.797-16.062-18.682-46.769 2.3-61.34" style="stroke-width:15;stroke-linecap:round;stroke-linejoin:round;stroke-miterlimit:10;" fill="none" stroke="#000000" stroke-width="15" stroke-linecap="round" stroke-linejoin="round" stroke-miterlimit="10" data-original="#000000"></path>
        <path d="M486.62 272.131c6.27 4.09 10.29 10.4 10.29 17.48 0 28.007-35.753 48.002-64 32.61-12.92-7.04-29.74-7.04-42.67 0-12.92 7.04-29.74 7.04-42.66 0-12.89-7.02-29.65-7.04-42.56-.06-28.691 15.505-64.11-4.761-64.11-32.55 0-7.08 4.02-13.39 10.29-17.48" style="stroke-width:15;stroke-linecap:round;stroke-linejoin:round;stroke-miterlimit:10;" fill="none" stroke="#000000" stroke-width="15" stroke-linecap="round" stroke-linejoin="round" stroke-miterlimit="10" data-original="#000000"></path>
        <path d="M429.202 148.641c-18.159-6.197-38.631-9.379-60.291-9.379-74.85 0-135.529 38.009-135.529 107.07 0 15.717 13.81 28.459 30.845 28.459h209.37c17.035 0 30.845-12.742 30.845-28.459-.001-37.185-17.592-65.368-45.515-83.462M406.463 380.203H258.926c-17.076 0-29.337 18.53-24.467 36.975 7.182 27.2 29.37 45.848 54.551 45.848h159.802c25.181 0 47.369-18.648 54.551-45.848 4.871-18.446-7.39-36.975-24.466-36.975h-42.363M195.73 133.651c13.66 9.52 22.59 25.35 22.59 43.26 0 29.11-23.59 52.7-52.7 52.7s-52.71-23.59-52.71-52.7c0-17.91 8.93-33.73 22.59-43.25" style="stroke-width:15;stroke-linecap:round;stroke-linejoin:round;stroke-miterlimit:10;" fill="none" stroke="#000000" stroke-width="15" stroke-linecap="round" stroke-linejoin="round" stroke-miterlimit="10" data-original="#000000"></path>
        <path d="M165.617 191.968c-16.633 0-30.118-13.484-30.118-30.118V79.027c0-16.633 13.484-30.118 30.118-30.118 16.633 0 30.118 13.484 30.118 30.118v82.824c0 16.633-13.484 30.117-30.118 30.117zM307.826 194.323v12M432.723 194.323v12M353.81 205.966c8.715 10.001 24.213 10.001 32.928 0" style="stroke-width:15;stroke-linecap:round;stroke-linejoin:round;stroke-miterlimit:10;" fill="none" stroke="#000000" stroke-width="15" stroke-linecap="round" stroke-linejoin="round" stroke-miterlimit="10" data-original="#000000"></path>
    </g>
</svg>