<svg xmlns="http://www.w3.org/2000/svg" version="1.1" xmlns:xlink="http://www.w3.org/1999/xlink" width="512" height="512" x="0" y="0" viewBox="0 0 64 64" style="enable-background:new 0 0 512 512" xml:space="preserve" class="hovered-paths">
	<g>
		<path d="M59 8H5a3.003 3.003 0 0 0-3 3v42a3.003 3.003 0 0 0 3 3h54a3.003 3.003 0 0 0 3-3V11a3.003 3.003 0 0 0-3-3zM4 11a1 1 0 0 1 1-1h54a1 1 0 0 1 1 1v7H4zm55 43H5a1 1 0 0 1-1-1V20h56v33a1 1 0 0 1-1 1zM39 15H15a1 1 0 0 1 0-2h24a1 1 0 0 1 0 2zm17 2a3 3 0 1 1 0-6 3 3 0 0 1 0 6zm0-4a1 1 0 0 0 0 2 1 1 0 0 0 0-2zm-7 4a3 3 0 1 1 0-6 3 3 0 0 1 0 6zm0-4a1 1 0 0 0 0 2 1 1 0 0 0 0-2zM36 30h-4a2.003 2.003 0 0 1-2-2v-4a2.003 2.003 0 0 1 2-2h4a2.003 2.003 0 0 1 2 2v4a2.003 2.003 0 0 1-2 2zm-4-6v4h4.002L36 24zm4 17h-4a2.003 2.003 0 0 1-2-2v-4a2.003 2.003 0 0 1 2-2h4a2.003 2.003 0 0 1 2 2v4a2.003 2.003 0 0 1-2 2zm-4-6v4h4.002L36 35zm-6 17H8a2.003 2.003 0 0 1-2-2v-2a2.003 2.003 0 0 1 2-2h18a2.003 2.003 0 0 1 2 2v2a2.003 2.003 0 0 1-2 2zM8 48v2h18.002L26 48zm49-24H40a1 1 0 0 1 0-2h17a1 1 0 0 1 0 2zm0 3H40a1 1 0 0 1 0-2h17a1 1 0 0 1 0 2zm0 3H40a1 1 0 0 1 0-2h17a1 1 0 0 1 0 2zm0 5H40a1 1 0 0 1 0-2h17a1 1 0 0 1 0 2zm0 3H40a1 1 0 0 1 0-2h17a1 1 0 0 1 0 2zm0 3H40a1 1 0 0 1 0-2h17a1 1 0 0 1 0 2zM36 52h-4a2.003 2.003 0 0 1-2-2v-4a2.003 2.003 0 0 1 2-2h4a2.003 2.003 0 0 1 2 2v4a2.003 2.003 0 0 1-2 2zm-4-6v4h4.002L36 46zm25 0H40a1 1 0 0 1 0-2h17a1 1 0 0 1 0 2zm0 3H40a1 1 0 0 1 0-2h17a1 1 0 0 1 0 2zm0 3H40a1 1 0 0 1 0-2h17a1 1 0 0 1 0 2zM28 37.69a6.58 6.58 0 0 0-6-6.554 6.028 6.028 0 1 0-10 0 6.58 6.58 0 0 0-6 6.554c-.23 2.1.35 4.59 2.74 5.04a30.274 30.274 0 0 0 16.52 0c2.39-.45 2.97-2.94 2.74-5.04zM17 23.742a4 4 0 1 1 0 8 4 4 0 1 1 0-8zm7.83 17.038c-7.552 1.571-8.108 1.571-15.66 0C7.74 40.54 8 38.73 8 37.69c-.077-3.222 2.97-4.71 5.788-4.835a6.5 6.5 0 0 0 6.431-.005c2.816.134 5.858 1.62 5.781 4.84 0 1.04.26 2.85-1.17 3.09z" data-name="40 Page profile" fill="#000000" opacity="1" data-original="#000000" class="hovered-path">
		</path>
	</g>
</svg>
