<svg xmlns="http://www.w3.org/2000/svg" version="1.1"
    xmlns:xlink="http://www.w3.org/1999/xlink" width="512" height="512" x="0" y="0" viewBox="0 0 512 512" style="enable-background:new 0 0 512 512" xml:space="preserve" class="">
    <g>
        <path d="M268.127 333.377h31.658V453h-31.658zM354.258 333.377h31.658V453h-31.658zM440.389 333.377h31.658V453h-31.658z" style="" fill="#dde2f6" data-original="#dde2f6"></path>
        <path d="M300.304 473.207 283.956 483l-16.348-9.793c-8.099 0-14.664-6.565-14.664-14.664v-.017c0-8.099 6.565-14.664 14.664-14.664h32.695c8.099 0 14.664 6.565 14.664 14.664v.017c0 8.099-6.565 14.664-14.663 14.664zM472.565 350.146H439.87c-8.099 0-14.664-6.565-14.664-14.664v-.017c0-8.099 6.565-14.664 14.664-14.664L456.218 310l16.348 10.801c8.099 0 14.664 6.565 14.664 14.664v.017c-.001 8.098-6.566 14.664-14.665 14.664zM472.565 473.207 456.218 483l-16.348-9.793c-8.099 0-14.664-6.565-14.664-14.664v-.017c0-8.099 6.565-14.664 14.664-14.664h32.695c8.099 0 14.664 6.565 14.664 14.664v.017c0 8.099-6.565 14.664-14.664 14.664zM386.434 350.146h-32.695c-8.099 0-14.664-6.565-14.664-14.664v-.017c0-8.099 6.565-14.664 14.664-14.664L370.087 310l16.348 10.801c8.099 0 14.664 6.565 14.664 14.664v.017c-.001 8.098-6.566 14.664-14.665 14.664zM386.434 473.207l-16.348 8.126-16.348-8.126c-8.099 0-14.664-6.565-14.664-14.664v-.017c0-8.099 6.565-14.664 14.664-14.664h32.695c8.099 0 14.664 6.565 14.664 14.664v.017c.001 8.099-6.564 14.664-14.663 14.664z" style="" fill="#7f95e0" data-original="#7f95e0"></path>
        <path d="M241.058 300.417 358.9 230.463a21.916 21.916 0 0 1 22.375 0l117.842 69.954c9.581 5.688 5.548 20.384-5.594 20.384H246.652c-11.143 0-15.175-14.696-5.594-20.384zM488.863 504.5H251.311c-8.636 0-15.637-7.001-15.637-15.637v-.018c0-8.636 7.001-15.637 15.637-15.637h237.551c8.636 0 15.637 7.001 15.637 15.637v.018c.001 8.636-7 15.637-15.636 15.637z" style="" fill="#b1beeb" data-original="#b1beeb"></path>
        <path d="M39.953 115.58h31.658v123.062H39.953z" style="" fill="#dde2f6" data-original="#dde2f6"></path>
        <path d="m72.13 253.314-16.348 10-16.348-10c-8.099 0-14.664-6.565-14.664-14.664v-.017c0-8.099 6.565-14.664 14.664-14.664H72.13c8.099 0 14.664 6.565 14.664 14.664v.017c0 8.099-6.566 14.664-14.664 14.664z" style="" fill="#7f95e0" data-original="#7f95e0"></path>
        <path d="M126.084 115.58h31.658v123.062h-31.658zM212.215 115.58h31.658v123.062h-31.658z" style="" fill="#dde2f6" data-original="#dde2f6"></path>
        <path d="M72.13 130.253H39.435c-8.099 0-14.664-6.565-14.664-14.664v-.017c0-8.099 6.565-14.664 14.664-14.664l16.348-11.627 16.348 11.627c8.099 0 14.664 6.565 14.664 14.664v.017c-.001 8.099-6.567 14.664-14.665 14.664zM244.392 130.253h-32.695c-8.099 0-14.664-6.565-14.664-14.664v-.017c0-8.099 6.565-14.664 14.664-14.664l16.348-11.627 16.348 11.627c8.099 0 14.664 6.565 14.664 14.664v.017c-.002 8.099-6.567 14.664-14.665 14.664zM158.261 130.253h-32.695c-8.099 0-14.664-6.565-14.664-14.664v-.017c0-8.099 6.565-14.664 14.664-14.664l16.348-11.627 16.348 11.627c8.099 0 14.664 6.565 14.664 14.664v.017c-.001 8.099-6.567 14.664-14.665 14.664zM158.261 253.314l-16.348 10-16.348-10c-8.099 0-14.664-6.565-14.664-14.664v-.017c0-8.099 6.565-14.664 14.664-14.664h32.695c8.099 0 14.664 6.565 14.664 14.664v.017c.001 8.099-6.565 14.664-14.663 14.664z" style="" fill="#7f95e0" data-original="#7f95e0"></path>
        <path d="M12.884 80.524 130.726 10.57a21.916 21.916 0 0 1 22.375 0l117.842 69.954c9.581 5.688 5.548 20.384-5.594 20.384H18.478c-11.142 0-15.175-14.696-5.594-20.384zM260.689 284.607H23.137c-8.636 0-15.637-7.001-15.637-15.637v-.018c0-8.636 7.001-15.637 15.637-15.637h237.551c8.636 0 15.637 7.001 15.637 15.637v.018c.001 8.636-7 15.637-15.636 15.637z" style="" fill="#b1beeb" data-original="#b1beeb"></path>
        <ellipse cx="256" cy="287" rx="99.32" ry="99.323" style="" fill="#ffcd55" data-original="#ffcd55"></ellipse>
        <path d="M256 187.677c-6.849 0-13.538.697-20 2.023 45.212 9.28 79.32 49.382 79.32 97.299 0 47.918-34.108 88.019-79.32 97.3a99.346 99.346 0 0 0 20 2.023c54.765 0 99.32-44.556 99.32-99.323 0-54.766-44.555-99.322-99.32-99.322z" style="" fill="#ffbe46" data-original="#ffbe46"></path>
        <ellipse cx="256" cy="287" rx="68.049" ry="68.051" style="" fill="#ffe177" data-original="#ffe177" class=""></ellipse>
        <path d="M473.993 504.5h14.87c8.636 0 15.637-7.001 15.637-15.637v-.018c0-8.636-7.001-15.637-15.637-15.637H251.311c-8.636 0-15.637 7.001-15.637 15.637v.018c0 8.636 7.001 15.637 15.637 15.637h192.734M300.304 473.207h-32.695c-8.099 0-14.664-6.565-14.664-14.664v-.017c0-8.099 6.565-14.664 14.664-14.664h32.695c8.099 0 14.664 6.565 14.664 14.664v.017c-.001 8.099-6.566 14.664-14.664 14.664zM472.565 350.146H439.87c-8.099 0-14.664-6.565-14.664-14.664v-.017c0-8.099 6.565-14.664 14.664-14.664h32.695c8.099 0 14.664 6.565 14.664 14.664v.017c0 8.098-6.565 14.664-14.664 14.664zM472.565 473.207H439.87c-8.099 0-14.664-6.565-14.664-14.664v-.017c0-8.099 6.565-14.664 14.664-14.664h32.695c8.099 0 14.664 6.565 14.664 14.664v.017c0 8.099-6.565 14.664-14.664 14.664z" style="stroke-width:15;stroke-linecap:round;stroke-linejoin:round;stroke-miterlimit:10;" fill="none" stroke="#000000" stroke-width="15" stroke-linecap="round" stroke-linejoin="round" stroke-miterlimit="10" data-original="#000000"></path>
        <path d="M299.785 376.138v67.725h-31.658v-58.11M354.258 350.146h31.658v93.717h-31.658zM440.389 350.146h31.658v93.717h-31.658zM353.739 320.801h32.695c8.099 0 14.664 6.565 14.664 14.664v.017c0 8.099-6.565 14.664-14.664 14.664h-32.695c-6.454 0-11.934-4.17-13.894-9.962" style="stroke-width:15;stroke-linecap:round;stroke-linejoin:round;stroke-miterlimit:10;" fill="none" stroke="#000000" stroke-width="15" stroke-linecap="round" stroke-linejoin="round" stroke-miterlimit="10" data-original="#000000"></path>
        <path d="M386.434 473.207h-32.695c-8.099 0-14.664-6.565-14.664-14.664v-.017c0-8.099 6.565-14.664 14.664-14.664h32.695c8.099 0 14.664 6.565 14.664 14.664v.017c0 8.099-6.565 14.664-14.664 14.664zM343.322 239.71l15.577-9.247a21.916 21.916 0 0 1 22.375 0l117.842 69.954c9.581 5.688 5.548 20.384-5.594 20.384H349.396M156.68 284.607H23.137c-8.636 0-15.637-7.001-15.637-15.637v-.018c0-8.636 7.001-15.637 15.637-15.637h138.889M72.13 130.253H39.435c-8.099 0-14.664-6.565-14.664-14.664v-.017c0-8.099 6.565-14.664 14.664-14.664H72.13c8.099 0 14.664 6.565 14.664 14.664v.017c0 8.099-6.566 14.664-14.664 14.664zM72.13 253.314H39.435c-8.099 0-14.664-6.565-14.664-14.664v-.017c0-8.099 6.565-14.664 14.664-14.664H72.13c8.099 0 14.664 6.565 14.664 14.664v.017c0 8.099-6.566 14.664-14.664 14.664zM244.392 130.253h-32.695c-8.099 0-14.664-6.565-14.664-14.664v-.017c0-8.099 6.565-14.664 14.664-14.664h32.695c8.099 0 14.664 6.565 14.664 14.664v.017c-.001 8.099-6.566 14.664-14.664 14.664z" style="stroke-width:15;stroke-linecap:round;stroke-linejoin:round;stroke-miterlimit:10;" fill="none" stroke="#000000" stroke-width="15" stroke-linecap="round" stroke-linejoin="round" stroke-miterlimit="10" data-original="#000000"></path>
        <path d="M39.953 130.253h31.658v93.717H39.953zM126.084 130.253h31.658v93.717h-31.658zM212.215 197.867v-67.614h31.658v58.166M158.261 130.253h-32.695c-8.099 0-14.664-6.565-14.664-14.664v-.017c0-8.099 6.565-14.664 14.664-14.664h32.695c8.099 0 14.664 6.565 14.664 14.664v.017c0 8.099-6.566 14.664-14.664 14.664z" style="stroke-width:15;stroke-linecap:round;stroke-linejoin:round;stroke-miterlimit:10;" fill="none" stroke="#000000" stroke-width="15" stroke-linecap="round" stroke-linejoin="round" stroke-miterlimit="10" data-original="#000000"></path>
        <path d="M158.261 253.314h-32.695c-8.099 0-14.664-6.565-14.664-14.664v-.017c0-8.099 6.565-14.664 14.664-14.664h32.695c6.426 0 11.887 4.134 13.868 9.887M68.633 47.43 12.884 80.524c-9.581 5.688-5.548 20.384 5.594 20.384h246.871c11.142 0 15.175-14.696 5.594-20.384L153.101 10.57a21.916 21.916 0 0 0-22.375 0L94.059 32.337M322.044 91.135c69.73 0 126.258 56.527 126.258 126.258" style="stroke-width:15;stroke-linecap:round;stroke-linejoin:round;stroke-miterlimit:10;" fill="none" stroke="#000000" stroke-width="15" stroke-linecap="round" stroke-linejoin="round" stroke-miterlimit="10" data-original="#000000"></path>
        <path d="m469.508 194.837-20.806 24.569-24.569-20.805M189.956 482.865c-69.73 0-126.258-56.527-126.258-126.258" style="stroke-width:15;stroke-linecap:round;stroke-linejoin:round;stroke-miterlimit:10;" fill="none" stroke="#000000" stroke-width="15" stroke-linecap="round" stroke-linejoin="round" stroke-miterlimit="10" data-original="#000000"></path>
        <path d="m42.492 379.163 20.806-24.569 24.569 20.805" style="stroke-width:15;stroke-linecap:round;stroke-linejoin:round;stroke-miterlimit:10;" fill="none" stroke="#000000" stroke-width="15" stroke-linecap="round" stroke-linejoin="round" stroke-miterlimit="10" data-original="#000000"></path>
        <ellipse cx="256" cy="287" rx="99.32" ry="99.323" style="stroke-width:15;stroke-linecap:round;stroke-linejoin:round;stroke-miterlimit:10;" fill="none" stroke="#000000" stroke-width="15" stroke-linecap="round" stroke-linejoin="round" stroke-miterlimit="10" data-original="#000000"></ellipse>
        <ellipse cx="256" cy="287" rx="68.049" ry="68.051" style="stroke-width:15;stroke-linecap:round;stroke-linejoin:round;stroke-miterlimit:10;" fill="none" stroke="#000000" stroke-width="15" stroke-linecap="round" stroke-linejoin="round" stroke-miterlimit="10" data-original="#000000"></ellipse>
        <path d="M268.214 259.922s-6.951-6.412-17.666-3.184c-6.527 1.966-11.004 9.865-8.926 16.489 2.486 7.924 13.897 11.005 20.73 13.42 17.424 6.159 10.983 30.85-6.741 30.85-10.435 0-16.226-4.368-16.226-4.368M255.611 317.496v8.97M255.611 247.534v8.322" style="stroke-width:15;stroke-linecap:round;stroke-linejoin:round;stroke-miterlimit:10;" fill="none" stroke="#000000" stroke-width="15" stroke-linecap="round" stroke-linejoin="round" stroke-miterlimit="10" data-original="#000000"></path>
    </g>
</svg>