<svg xmlns="http://www.w3.org/2000/svg" version="1.1"
    xmlns:xlink="http://www.w3.org/1999/xlink" width="512" height="512" x="0" y="0" viewBox="0 0 64 64" style="enable-background:new 0 0 512 512" xml:space="preserve" class="">
    <g>
        <g data-name="14-Gift">
            <path fill="#ffad39" d="M40 25h18v34a4 4 0 0 1-4 4H39V25zM25 25v38H10a4 4 0 0 1-4-4V25z" opacity="1" data-original="#ffad39"></path>
            <path fill="#febd55" d="M24 13v12H3a2.006 2.006 0 0 1-2-2v-8a2.006 2.006 0 0 1 2-2zM63 15v8a2.006 2.006 0 0 1-2 2H40V13h21a2.006 2.006 0 0 1 2 2z" opacity="1" data-original="#febd55"></path>
            <path fill="#cb3541" d="M37 11v2H27v-2a2.006 2.006 0 0 1 2-2h6a2.006 2.006 0 0 1 2 2z" opacity="1" data-original="#cb3541"></path>
            <path fill="#a81e29" d="M35 11h-6a2 2 0 0 1-1.721-1A1.975 1.975 0 0 0 27 11v2h10v-2a1.975 1.975 0 0 0-.279-1A2 2 0 0 1 35 11z" opacity="1" data-original="#a81e29"></path>
            <path fill="#e03e3e" d="M27 11v2H12a2.938 2.938 0 0 1-3-3c0-4 5-4 5-4a19.617 19.617 0 0 1 13 5z" opacity="1" data-original="#e03e3e"></path>
            <path fill="#cb3541" d="M19 1c8 0 8 10 8 10a19.617 19.617 0 0 0-13-5s0-5 5-5zM37 11s0-10 8-10c5 0 5 5 5 5a19.617 19.617 0 0 0-13 5z" opacity="1" data-original="#cb3541"></path>
            <path fill="#e03e3e" d="M37 11a19.617 19.617 0 0 1 13-5s5 0 5 4a2.938 2.938 0 0 1-3 3H37z" opacity="1" data-original="#e03e3e"></path>
            <path fill="#cb3541" d="M25 25h14v38H25z" opacity="1" data-original="#cb3541"></path>
            <path fill="#ff6161" d="M40 13v12H24V13h13z" opacity="1" data-original="#ff6161"></path>
            <path fill="#cb3541" d="M60.63 42.28c.21.95 2.37 1.7 2.37 2.72s-2.16 1.77-2.37 2.72c-.22.98 1.4 2.62.99 3.5-.43.9-2.69.62-3.3 1.4s.17 2.97-.59 3.59-2.68-.64-3.56-.2c-.86.43-1.1 2.75-2.05 2.97-.93.22-2.13-1.76-3.12-1.76s-2.19 1.98-3.12 1.76c-.95-.22-1.19-2.54-2.06-2.97s-2.8.82-3.55.2.01-2.82-.6-3.59-2.86-.5-3.29-1.4c-.41-.88 1.21-2.52.99-3.5-.21-.95-2.37-1.7-2.37-2.72s2.16-1.77 2.37-2.72c.22-.98-1.4-2.62-.99-3.5.43-.9 2.69-.62 3.3-1.4s-.17-2.97.59-3.59 2.68.64 3.56.2c.86-.43 1.1-2.75 2.05-2.97.93-.22 2.13 1.76 3.12 1.76s2.19-1.98 3.12-1.76c.95.22 1.19 2.54 2.06 2.97s2.8-.82 3.55-.2-.01 2.82.6 3.59 2.86.5 3.29 1.4c.41.88-1.21 2.52-.99 3.5z" opacity="1" data-original="#cb3541"></path>
            <path fill="#ff6161" d="M60 45c0 .8-1.7 1.391-1.863 2.137-.171.772 1.1 2.058.775 2.754s-2.112.486-2.586 1.093.128 2.338-.467 2.825-2.1-.5-2.793-.159-.866 2.162-1.618 2.337c-.729.17-1.669-1.389-2.448-1.389s-1.719 1.559-2.448 1.389c-.753-.175-.939-2-1.618-2.337s-2.2.644-2.793.159.008-2.215-.468-2.825-2.253-.384-2.586-1.094.947-1.982.776-2.753C39.7 46.39 38 45.8 38 45s1.7-1.391 1.863-2.137c.171-.772-1.1-2.058-.775-2.754s2.112-.486 2.586-1.093-.128-2.338.467-2.825 2.1.5 2.793.159.866-2.162 1.618-2.337c.729-.17 1.669 1.389 2.448 1.389s1.719-1.559 2.448-1.389c.753.175.939 2 1.618 2.337s2.2-.644 2.793-.159-.008 2.215.468 2.825 2.253.387 2.586 1.094-.947 1.982-.776 2.753C58.3 43.61 60 44.2 60 45z" opacity="1" data-original="#ff6161"></path>
            <g fill="#e68c15">
                <path d="M58 29v-4H39v4zM54 59H39v4h15a4 4 0 0 0 4-4v-4a4 4 0 0 1-4 4zM11 41v-8a4 4 0 0 1 4-4h10v-4H6v34a4 4 0 0 0 4 4h15v-4.461A18 18 0 0 1 11 41z" fill="#e68c15" opacity="1" data-original="#e68c15"></path>
            </g>
            <path fill="#a81e29" d="M29 59a18.052 18.052 0 0 1-4-.461V63h14v-4zM25 25h14v4H25z" opacity="1" data-original="#a81e29"></path>
            <path fill="#ffa930" d="M11.5 20a3.5 3.5 0 0 1 0-7H3a2.006 2.006 0 0 0-2 2v8a2.006 2.006 0 0 0 2 2h21v-5zM61 20H40v5h21a2.006 2.006 0 0 0 2-2v-5a2 2 0 0 1-2 2z" opacity="1" data-original="#ffa930"></path>
            <path fill="#cb3541" d="M24 20v5h16v-5z" opacity="1" data-original="#cb3541"></path>
            <path fill="#a81e29" d="M23 6s-5.835-1.941-8.872-1.033A5.944 5.944 0 0 0 14 6a19.617 19.617 0 0 1 13 5s0-4.413-2.35-7.376C24.653 4.889 24.29 6 23 6zM42 6c-1.66 0-1.787-1.837-1.571-3.479C37 5.319 37 11 37 11a19.617 19.617 0 0 1 13-5 6.036 6.036 0 0 0-.172-1.234C46.668 4.446 42 6 42 6z" opacity="1" data-original="#a81e29"></path>
            <path fill="#cb3541" d="M22.878 8.781A1.008 1.008 0 0 1 21.9 10H12a2 2 0 0 1-2-2v-.537A3.428 3.428 0 0 0 9 10a2.938 2.938 0 0 0 3 3h15v-2a17.888 17.888 0 0 0-4.329-2.934 4.79 4.79 0 0 1 .207.715zM53 10h-9.9a1.008 1.008 0 0 1-.98-1.219 4.688 4.688 0 0 1 .47-1.281A18.727 18.727 0 0 0 37 11v2h15a2.938 2.938 0 0 0 3-3 3.917 3.917 0 0 0-.179-1.181A2 2 0 0 1 53 10z" opacity="1" data-original="#cb3541"></path>
            <path fill="#961b25" d="M36.38 51.22c-.41-.88 1.21-2.52.99-3.5-.21-.95-2.37-1.7-2.37-2.72s2.16-1.77 2.37-2.72c.162-.723-.674-1.8-.961-2.677-.832.5-2.648.379-3.029 1.177-.41.88 1.21 2.52.99 3.5-.21.95-2.37 1.7-2.37 2.72s2.16 1.77 2.37 2.72c.22.98-1.4 2.62-.99 3.5.43.9 2.69.62 3.29 1.4s-.16 2.97.6 3.59c.375.31 1.045.15 1.73-.033v-5.963c-.909-.305-2.293-.309-2.62-.994z" opacity="1" data-original="#961b25"></path>
            <path fill="#e68c15" d="M45.88 58.98c-.95-.22-1.19-2.54-2.06-2.97s-2.8.82-3.55.2.01-2.82-.6-3.59a1.38 1.38 0 0 0-.67-.406v5.963a2.982 2.982 0 0 1 1.82-.167 2.025 2.025 0 0 1 .743.99c.383.82.7 1.838 1.317 1.98.93.22 2.13-1.76 3.12-1.76s2.19 1.98 3.12 1.76c.615-.142.933-1.16 1.314-1.98a3.73 3.73 0 0 1 .364-.637c-.609-.511-1.237-1.143-1.8-1.143-.988 0-2.188 1.98-3.118 1.76zM55.071 55.959a1.5 1.5 0 0 0-.9.051c-.562.281-.861 1.362-1.265 2.144.716.192 1.428.38 1.825.056.469-.383.354-1.371.34-2.251z" opacity="1" data-original="#e68c15"></path>
            <path fill="#961b25" d="M39 35.821c-.683-.182-1.351-.34-1.73-.031-.523.427-.327 1.6-.346 2.538.576-.255 1.436-.328 2.076-.54z" opacity="1" data-original="#961b25"></path>
            <path d="M51 24h2v2h-2z" fill="#000000" opacity="1" data-original="#000000" class=""></path>
            <path d="M59 31v-5h2a3 3 0 0 0 3-3v-8a3 3 0 0 0-3-3h-5.487A4.08 4.08 0 0 0 56 10c0-3.423-2.939-4.666-5.076-4.938A5.662 5.662 0 0 0 45 0c-5.647 0-7.992 4.525-8.723 8.3A2.976 2.976 0 0 0 35 8h-6a2.976 2.976 0 0 0-1.277.3C26.992 4.525 24.647 0 19 0a5.662 5.662 0 0 0-5.924 5.062C10.939 5.334 8 6.577 8 10a4.08 4.08 0 0 0 .487 2H3a3 3 0 0 0-3 3v8a3 3 0 0 0 3 3h21v36H10a3 3 0 0 1-3-3V32H5v27a5.006 5.006 0 0 0 5 5h44a5.006 5.006 0 0 0 5-5v-1h-2v1a3 3 0 0 1-3 3H40v-4h-2v4H26V26h12v6h2v-6h7v-2h-6V14h7v17a2.739 2.739 0 0 0-2.342-.959c-1 .233-1.429 1.229-1.807 2.107a10.152 10.152 0 0 1-.432.931 3.782 3.782 0 0 1-1.055-.2c-.862-.231-1.934-.517-2.726.131a3.092 3.092 0 0 0-.718 2.659 7.286 7.286 0 0 1-.008 1.069 3.966 3.966 0 0 1-1.028.286c-.876.174-1.966.39-2.405 1.322a3.082 3.082 0 0 0 .479 2.687 6.16 6.16 0 0 1 .447.991 4.019 4.019 0 0 1-.8.711C34.891 43.286 34 43.966 34 45s.891 1.715 1.606 2.261a6.58 6.58 0 0 1 .785.652 4.042 4.042 0 0 1-.433 1.049 3.075 3.075 0 0 0-.479 2.687c.439.933 1.529 1.149 2.405 1.323a7.309 7.309 0 0 1 .985.231 4.193 4.193 0 0 1 .05 1.123 3.092 3.092 0 0 0 .718 2.659c.793.648 1.864.361 2.725.132.33-.089.864-.221.984-.233a4.178 4.178 0 0 1 .5.967c.379.878.809 1.875 1.808 2.106s1.781-.468 2.486-1.083a7.191 7.191 0 0 1 .822-.661 4.036 4.036 0 0 1 .89.662A3.475 3.475 0 0 0 51.959 60a1.659 1.659 0 0 0 .383-.045c1-.231 1.429-1.228 1.807-2.105a9.947 9.947 0 0 1 .432-.932 3.807 3.807 0 0 1 1.055.2c.861.231 1.933.517 2.726-.131a3.092 3.092 0 0 0 .718-2.659 7.286 7.286 0 0 1 .008-1.069 3.966 3.966 0 0 1 1.028-.286c.876-.174 1.966-.39 2.405-1.322a3.082 3.082 0 0 0-.479-2.687 6.16 6.16 0 0 1-.447-.991 4.019 4.019 0 0 1 .8-.711C63.109 46.714 64 46.034 64 45s-.891-1.715-1.606-2.261a6.58 6.58 0 0 1-.785-.652 4.042 4.042 0 0 1 .433-1.049 3.075 3.075 0 0 0 .479-2.687c-.439-.933-1.529-1.149-2.405-1.323a7.309 7.309 0 0 1-.985-.231 4.193 4.193 0 0 1-.05-1.123 3.092 3.092 0 0 0-.718-2.659 2.981 2.981 0 0 0-2.725-.132c-.33.088-.868.221-.984.233a4.2 4.2 0 0 1-.5-.967c-.379-.878-.809-1.874-1.807-2.107A2.74 2.74 0 0 0 50 31V14h11a1 1 0 0 1 1 1v8a1 1 0 0 1-1 1h-6v2h2v5zm-7.115 1.061a6.862 6.862 0 0 1 .428.88 3.512 3.512 0 0 0 1.419 1.947 3.477 3.477 0 0 0 2.422-.073 6.5 6.5 0 0 1 .911-.2 6.628 6.628 0 0 1 .017.995 3.6 3.6 0 0 0 .455 2.39 3.48 3.48 0 0 0 2.19.99 6.127 6.127 0 0 1 .939.236 6.483 6.483 0 0 1-.406.905 3.677 3.677 0 0 0-.607 2.366 3.474 3.474 0 0 0 1.527 1.831 5.619 5.619 0 0 1 .782.672 5.619 5.619 0 0 1-.782.672 3.476 3.476 0 0 0-1.527 1.828 3.682 3.682 0 0 0 .606 2.366 6.368 6.368 0 0 1 .406.905 6.235 6.235 0 0 1-.938.235 3.487 3.487 0 0 0-2.191.994 3.6 3.6 0 0 0-.455 2.388c.01.316.026.822.019 1a6.053 6.053 0 0 1-.947-.2 3.478 3.478 0 0 0-2.422-.074 3.517 3.517 0 0 0-1.418 1.947 6.913 6.913 0 0 1-.429.879 7.026 7.026 0 0 1-.714-.571A3.545 3.545 0 0 0 49 56.216a3.545 3.545 0 0 0-2.17 1.151 6.926 6.926 0 0 1-.715.571 6.78 6.78 0 0 1-.428-.879 3.512 3.512 0 0 0-1.419-1.947 2.036 2.036 0 0 0-.911-.2 6.017 6.017 0 0 0-1.511.269 6.5 6.5 0 0 1-.911.2 6.628 6.628 0 0 1-.017-.995A3.6 3.6 0 0 0 40.463 52a3.48 3.48 0 0 0-2.19-.99 6.127 6.127 0 0 1-.939-.236 6.483 6.483 0 0 1 .406-.905 3.677 3.677 0 0 0 .607-2.366 3.474 3.474 0 0 0-1.527-1.831 5.619 5.619 0 0 1-.782-.672 5.619 5.619 0 0 1 .782-.672 3.476 3.476 0 0 0 1.527-1.828 3.682 3.682 0 0 0-.606-2.366 6.368 6.368 0 0 1-.406-.905 6.235 6.235 0 0 1 .938-.235A3.487 3.487 0 0 0 40.464 38a3.6 3.6 0 0 0 .455-2.388 22.95 22.95 0 0 1-.019-1 6.053 6.053 0 0 1 .947.2 3.488 3.488 0 0 0 2.422.074 3.517 3.517 0 0 0 1.418-1.947 6.863 6.863 0 0 1 .429-.88 7.328 7.328 0 0 1 .714.572A3.545 3.545 0 0 0 49 33.784a3.548 3.548 0 0 0 2.17-1.151 7.219 7.219 0 0 1 .715-.572zM45 2a3.644 3.644 0 0 1 3.88 3.042 20.754 20.754 0 0 0-10.622 3.672 12.814 12.814 0 0 1 .671-2.342C40.089 3.471 42.131 2 45 2zm-16 8h6a1 1 0 0 1 1 1v1h-8v-1a1 1 0 0 1 1-1zM19 2c4.727 0 6.261 4.056 6.76 6.727a20.745 20.745 0 0 0-10.637-3.685A3.659 3.659 0 0 1 19 2zm-9 8c0-2.943 3.839-3 4-3a18.886 18.886 0 0 1 12 4.443V12H12.007A1.884 1.884 0 0 1 10 10zM2 23v-8a1 1 0 0 1 1-1h20v10H3a1 1 0 0 1-1-1zm37 1H25V14h14zm1-12h-2v-.557A18.886 18.886 0 0 1 50 7c.163 0 4 .034 4 3a1.882 1.882 0 0 1-2 2z" fill="#000000" opacity="1" data-original="#000000" class=""></path>
            <path d="M5 28h2v2H5zM42.284 50.292l11.999-11.999 1.414 1.414-11.999 11.999zM52 47a3 3 0 1 0 3 3 3 3 0 0 0-3-3zm0 4a1 1 0 1 1 1-1 1 1 0 0 1-1 1zM46 43a3 3 0 1 0-3-3 3 3 0 0 0 3 3zm0-4a1 1 0 1 1-1 1 1 1 0 0 1 1-1z" fill="#000000" opacity="1" data-original="#000000" class=""></path>
        </g>
    </g>
</svg>