<svg xmlns="http://www.w3.org/2000/svg" version="1.1"
    xmlns:xlink="http://www.w3.org/1999/xlink" width="512" height="512" x="0" y="0" viewBox="0 0 682.667 682.667" style="enable-background:new 0 0 512 512" xml:space="preserve" class="">
    <g>
        <defs>
            <clipPath id="a" clipPathUnits="userSpaceOnUse">
                <path d="M0 512h512V0H0Z" fill="#000000" opacity="1" data-original="#000000"></path>
            </clipPath>
        </defs>
        <g clip-path="url(#a)" transform="matrix(1.33333 0 0 -1.33333 0 682.667)">
            <path d="M0 0c0 13.933-11.295 25.228-25.228 25.228h-107.684c-13.933 0-25.228-11.295-25.228-25.228v-446.544c0-13.933 11.295-25.228 25.228-25.228h107.684C-11.295-471.772 0-460.477 0-446.544h23.581V0Z" style="fill-opacity:1;fill-rule:nonzero;stroke:none" transform="translate(176.93 479.272)" fill="#0e80ac" data-original="#0e80ac" class=""></path>
            <path d="M0 0h-34.434C-20.501 0-9.206-11.295-9.206-25.228v-446.544c0-13.933-11.295-25.228-25.228-25.228H0c13.933 0 25.228 11.295 25.228 25.228v446.544C25.228-11.295 13.933 0 0 0" style="fill-opacity:1;fill-rule:nonzero;stroke:none" transform="translate(151.702 504.5)" fill="#057195" data-original="#057195" class=""></path>
            <path d="M0 0c0 13.933-11.295 25.228-25.228 25.228h-107.684c-13.933 0-25.228-11.295-25.228-25.228v-446.544c0-13.933 11.295-25.228 25.228-25.228h107.684C-11.295-471.772 0-460.477 0-446.544h23.581V0Z" style="fill-opacity:1;fill-rule:nonzero;stroke:none" transform="translate(335.07 479.272)" fill="#fd7e42" data-original="#fd7e42" class=""></path>
            <path d="M0 0h-34.434C-20.5 0-9.206-11.295-9.206-25.228v-446.544C-9.206-485.705-20.5-497-34.434-497H0c13.933 0 25.228 11.295 25.228 25.228v446.544C25.228-11.295 13.933 0 0 0" style="fill-opacity:1;fill-rule:nonzero;stroke:none" transform="translate(309.842 504.5)" fill="#fa6931" data-original="#fa6931"></path>
            <path d="M0 0v184.312c0 6.203 5.028 11.23 11.23 11.23h66.812c6.203 0 11.23-5.027 11.23-11.23V0c0-6.202-5.027-11.229-11.23-11.229H11.23C5.028-11.229 0-6.202 0 0" style="fill-opacity:1;fill-rule:nonzero;stroke:none" transform="translate(211.364 275.266)" fill="#f1faff" data-original="#f1faff" class=""></path>
            <path d="M0 0h-107.684c-13.933 0-25.228 11.295-25.228 25.228v446.544c0 13.933 11.295 25.228 25.228 25.228H0c13.933 0 25.228-11.295 25.228-25.228V25.228C25.228 11.295 13.933 0 0 0" style="fill-opacity:1;fill-rule:nonzero;stroke:none" transform="translate(467.981 7.5)" fill="#fdcb82" data-original="#fdcb82"></path>
            <path d="M0 0h-34.434C-20.501 0-9.206-11.295-9.206-25.228v-446.544c0-13.933-11.295-25.228-25.228-25.228H0c13.933 0 25.228 11.295 25.228 25.228v446.544C25.228-11.295 13.933 0 0 0" style="fill-opacity:1;fill-rule:nonzero;stroke:none" transform="translate(467.981 504.5)" fill="#fbbe66" data-original="#fbbe66"></path>
            <path d="M0 0v184.312c0 6.203 5.027 11.23 11.229 11.23h66.813c6.202 0 11.23-5.027 11.23-11.23V0c0-6.202-5.028-11.229-11.23-11.229H11.229C5.027-11.229 0-6.202 0 0" style="fill-opacity:1;fill-rule:nonzero;stroke:none" transform="translate(369.504 275.266)" fill="#f1faff" data-original="#f1faff" class=""></path>
            <path d="M0 0v184.312c0 6.203 5.028 11.23 11.229 11.23h66.813c6.203 0 11.23-5.027 11.23-11.23V0c0-6.202-5.027-11.229-11.23-11.229H11.229C5.028-11.229 0-6.202 0 0" style="fill-opacity:1;fill-rule:nonzero;stroke:none" transform="translate(53.224 275.266)" fill="#f1faff" data-original="#f1faff" class=""></path>
            <path d="M0 0h32.748" style="stroke-width:15;stroke-linecap:round;stroke-linejoin:round;stroke-miterlimit:10;stroke-dasharray:none;stroke-opacity:1" transform="translate(81.486 429.6)" fill="none" stroke="#000000" stroke-width="15" stroke-linecap="round" stroke-linejoin="round" stroke-miterlimit="10" stroke-dasharray="none" stroke-opacity="" data-original="#000000" class=""></path>
            <path d="M0 0h32.748" style="stroke-width:15;stroke-linecap:round;stroke-linejoin:round;stroke-miterlimit:10;stroke-dasharray:none;stroke-opacity:1" transform="translate(81.486 389.655)" fill="none" stroke="#000000" stroke-width="15" stroke-linecap="round" stroke-linejoin="round" stroke-miterlimit="10" stroke-dasharray="none" stroke-opacity="" data-original="#000000" class=""></path>
            <path d="M0 0h32.747" style="stroke-width:15;stroke-linecap:round;stroke-linejoin:round;stroke-miterlimit:10;stroke-dasharray:none;stroke-opacity:1" transform="translate(239.626 429.6)" fill="none" stroke="#000000" stroke-width="15" stroke-linecap="round" stroke-linejoin="round" stroke-miterlimit="10" stroke-dasharray="none" stroke-opacity="" data-original="#000000" class=""></path>
            <path d="M0 0h32.747" style="stroke-width:15;stroke-linecap:round;stroke-linejoin:round;stroke-miterlimit:10;stroke-dasharray:none;stroke-opacity:1" transform="translate(239.626 389.655)" fill="none" stroke="#000000" stroke-width="15" stroke-linecap="round" stroke-linejoin="round" stroke-miterlimit="10" stroke-dasharray="none" stroke-opacity="" data-original="#000000" class=""></path>
            <path d="M0 0h32.747" style="stroke-width:15;stroke-linecap:round;stroke-linejoin:round;stroke-miterlimit:10;stroke-dasharray:none;stroke-opacity:1" transform="translate(397.766 429.6)" fill="none" stroke="#000000" stroke-width="15" stroke-linecap="round" stroke-linejoin="round" stroke-miterlimit="10" stroke-dasharray="none" stroke-opacity="" data-original="#000000" class=""></path>
            <path d="M0 0h32.747" style="stroke-width:15;stroke-linecap:round;stroke-linejoin:round;stroke-miterlimit:10;stroke-dasharray:none;stroke-opacity:1" transform="translate(397.766 389.655)" fill="none" stroke="#000000" stroke-width="15" stroke-linecap="round" stroke-linejoin="round" stroke-miterlimit="10" stroke-dasharray="none" stroke-opacity="" data-original="#000000" class=""></path>
            <path d="M0 0c0 13.933-11.295 25.228-25.228 25.228h-107.684c-13.933 0-25.228-11.295-25.228-25.228v-446.544c0-13.933 11.295-25.228 25.228-25.228h107.684C-11.295-471.772 0-460.477 0-446.544" style="stroke-width:15;stroke-linecap:round;stroke-linejoin:round;stroke-miterlimit:10;stroke-dasharray:none;stroke-opacity:1" transform="translate(176.93 479.272)" fill="none" stroke="#000000" stroke-width="15" stroke-linecap="round" stroke-linejoin="round" stroke-miterlimit="10" stroke-dasharray="none" stroke-opacity="" data-original="#000000" class=""></path>
            <path d="M0 0c0 13.933-11.295 25.228-25.228 25.228h-107.684c-13.933 0-25.228-11.295-25.228-25.228v-446.544c0-13.933 11.295-25.228 25.228-25.228h107.684C-11.295-471.772 0-460.477 0-446.544" style="stroke-width:15;stroke-linecap:round;stroke-linejoin:round;stroke-miterlimit:10;stroke-dasharray:none;stroke-opacity:1" transform="translate(335.07 479.272)" fill="none" stroke="#000000" stroke-width="15" stroke-linecap="round" stroke-linejoin="round" stroke-miterlimit="10" stroke-dasharray="none" stroke-opacity="" data-original="#000000" class=""></path>
            <path d="M0 0v184.312c0 6.203 5.028 11.23 11.23 11.23h66.812c6.203 0 11.23-5.027 11.23-11.23V0c0-6.202-5.027-11.229-11.23-11.229H11.23C5.028-11.229 0-6.202 0 0Z" style="stroke-width:15;stroke-linecap:round;stroke-linejoin:round;stroke-miterlimit:10;stroke-dasharray:none;stroke-opacity:1" transform="translate(211.364 275.266)" fill="none" stroke="#000000" stroke-width="15" stroke-linecap="round" stroke-linejoin="round" stroke-miterlimit="10" stroke-dasharray="none" stroke-opacity="" data-original="#000000" class=""></path>
            <path d="M0 0h-107.684c-13.933 0-25.228 11.295-25.228 25.228v446.544c0 13.933 11.295 25.228 25.228 25.228H0c13.933 0 25.228-11.295 25.228-25.228V25.228C25.228 11.295 13.933 0 0 0Z" style="stroke-width:15;stroke-linecap:round;stroke-linejoin:round;stroke-miterlimit:10;stroke-dasharray:none;stroke-opacity:1" transform="translate(467.981 7.5)" fill="none" stroke="#000000" stroke-width="15" stroke-linecap="round" stroke-linejoin="round" stroke-miterlimit="10" stroke-dasharray="none" stroke-opacity="" data-original="#000000" class=""></path>
            <path d="M0 0v126.896c0 6.203 5.027 11.23 11.229 11.23h66.813c6.202 0 11.23-5.027 11.23-11.23V-57.416c0-6.202-5.028-11.23-11.23-11.23H11.229C5.027-68.646 0-63.618 0-57.416v22.356" style="stroke-width:15;stroke-linecap:round;stroke-linejoin:round;stroke-miterlimit:10;stroke-dasharray:none;stroke-opacity:1" transform="translate(369.504 332.682)" fill="none" stroke="#000000" stroke-width="15" stroke-linecap="round" stroke-linejoin="round" stroke-miterlimit="10" stroke-dasharray="none" stroke-opacity="" data-original="#000000" class=""></path>
            <path d="M0 0v19.051c0 6.202 5.028 11.23 11.229 11.23h66.813c6.203 0 11.23-5.028 11.23-11.23v-184.312c0-6.202-5.027-11.23-11.23-11.23H11.229C5.028-176.491 0-171.463 0-165.261v129.852" style="stroke-width:15;stroke-linecap:round;stroke-linejoin:round;stroke-miterlimit:10;stroke-dasharray:none;stroke-opacity:1" transform="translate(53.224 440.527)" fill="none" stroke="#000000" stroke-width="15" stroke-linecap="round" stroke-linejoin="round" stroke-miterlimit="10" stroke-dasharray="none" stroke-opacity="" data-original="#000000" class=""></path>
            <path d="M0 0c0-28.052-22.741-50.793-50.793-50.793S-101.586-28.052-101.586 0s22.741 50.793 50.793 50.793S0 28.052 0 0" style="fill-opacity:1;fill-rule:nonzero;stroke:none" transform="translate(148.653 99.68)" fill="#f1faff" data-original="#f1faff" class=""></path>
            <path d="M0 0c-12.73 0-23.087 10.357-23.087 23.087 0 12.731 10.357 23.087 23.087 23.087s23.087-10.356 23.087-23.087C23.087 10.357 12.73 0 0 0" style="fill-opacity:1;fill-rule:nonzero;stroke:none" transform="translate(97.86 76.592)" fill="#3c5959" data-original="#3c5959"></path>
            <path d="M0 0c0-28.052-22.741-50.793-50.793-50.793S-101.586-28.052-101.586 0s22.741 50.793 50.793 50.793S0 28.052 0 0" style="fill-opacity:1;fill-rule:nonzero;stroke:none" transform="translate(306.793 99.68)" fill="#f1faff" data-original="#f1faff" class=""></path>
            <path d="M0 0c-12.73 0-23.087 10.357-23.087 23.087 0 12.731 10.357 23.087 23.087 23.087s23.087-10.356 23.087-23.087C23.087 10.357 12.73 0 0 0" style="fill-opacity:1;fill-rule:nonzero;stroke:none" transform="translate(256 76.592)" fill="#3c5959" data-original="#3c5959"></path>
            <path d="M0 0c0-28.052-22.741-50.793-50.793-50.793S-101.586-28.052-101.586 0s22.741 50.793 50.793 50.793S0 28.052 0 0" style="fill-opacity:1;fill-rule:nonzero;stroke:none" transform="translate(464.933 99.68)" fill="#f1faff" data-original="#f1faff" class=""></path>
            <path d="M0 0c-12.73 0-23.087 10.357-23.087 23.087 0 12.731 10.357 23.087 23.087 23.087s23.087-10.356 23.087-23.087C23.087 10.357 12.73 0 0 0" style="fill-opacity:1;fill-rule:nonzero;stroke:none" transform="translate(414.14 76.592)" fill="#3c5959" data-original="#3c5959"></path>
            <path d="M0 0c0-28.052-22.741-50.793-50.793-50.793S-101.586-28.052-101.586 0s22.741 50.793 50.793 50.793S0 28.052 0 0Z" style="stroke-width:15;stroke-linecap:round;stroke-linejoin:round;stroke-miterlimit:10;stroke-dasharray:none;stroke-opacity:1" transform="translate(148.653 99.68)" fill="none" stroke="#000000" stroke-width="15" stroke-linecap="round" stroke-linejoin="round" stroke-miterlimit="10" stroke-dasharray="none" stroke-opacity="" data-original="#000000" class=""></path>
            <path d="M0 0c-12.73 0-23.087 10.357-23.087 23.087 0 12.731 10.357 23.087 23.087 23.087s23.087-10.356 23.087-23.087C23.087 10.357 12.73 0 0 0Z" style="stroke-width:15;stroke-linecap:round;stroke-linejoin:round;stroke-miterlimit:10;stroke-dasharray:none;stroke-opacity:1" transform="translate(97.86 76.592)" fill="none" stroke="#000000" stroke-width="15" stroke-linecap="round" stroke-linejoin="round" stroke-miterlimit="10" stroke-dasharray="none" stroke-opacity="" data-original="#000000" class=""></path>
            <path d="M0 0c0-28.052-22.741-50.793-50.793-50.793S-101.586-28.052-101.586 0s22.741 50.793 50.793 50.793S0 28.052 0 0Z" style="stroke-width:15;stroke-linecap:round;stroke-linejoin:round;stroke-miterlimit:10;stroke-dasharray:none;stroke-opacity:1" transform="translate(306.793 99.68)" fill="none" stroke="#000000" stroke-width="15" stroke-linecap="round" stroke-linejoin="round" stroke-miterlimit="10" stroke-dasharray="none" stroke-opacity="" data-original="#000000" class=""></path>
            <path d="M0 0c-12.73 0-23.087 10.357-23.087 23.087 0 12.731 10.357 23.087 23.087 23.087s23.087-10.356 23.087-23.087C23.087 10.357 12.73 0 0 0Z" style="stroke-width:15;stroke-linecap:round;stroke-linejoin:round;stroke-miterlimit:10;stroke-dasharray:none;stroke-opacity:1" transform="translate(256 76.592)" fill="none" stroke="#000000" stroke-width="15" stroke-linecap="round" stroke-linejoin="round" stroke-miterlimit="10" stroke-dasharray="none" stroke-opacity="" data-original="#000000" class=""></path>
            <path d="M0 0c0-28.052-22.741-50.793-50.793-50.793S-101.586-28.052-101.586 0s22.741 50.793 50.793 50.793S0 28.052 0 0Z" style="stroke-width:15;stroke-linecap:round;stroke-linejoin:round;stroke-miterlimit:10;stroke-dasharray:none;stroke-opacity:1" transform="translate(464.933 99.68)" fill="none" stroke="#000000" stroke-width="15" stroke-linecap="round" stroke-linejoin="round" stroke-miterlimit="10" stroke-dasharray="none" stroke-opacity="" data-original="#000000" class=""></path>
            <path d="M0 0c-12.73 0-23.087 10.357-23.087 23.087 0 12.731 10.357 23.087 23.087 23.087s23.087-10.356 23.087-23.087C23.087 10.357 12.73 0 0 0Z" style="stroke-width:15;stroke-linecap:round;stroke-linejoin:round;stroke-miterlimit:10;stroke-dasharray:none;stroke-opacity:1" transform="translate(414.14 76.592)" fill="none" stroke="#000000" stroke-width="15" stroke-linecap="round" stroke-linejoin="round" stroke-miterlimit="10" stroke-dasharray="none" stroke-opacity="" data-original="#000000" class=""></path>
        </g>
    </g>
</svg>